<svg width="21" height="149" viewBox="0 0 21 149" fill="none" xmlns="http://www.w3.org/2000/svg">
<g clip-path="url(#clip0_207_112)">
<path d="M4.5 9C6.98528 9 9 6.98528 9 4.5C9 2.01472 6.98528 0 4.5 0C2.01472 0 0 2.01472 0 4.5C0 6.98528 2.01472 9 4.5 9Z" fill="#4D6290"/>
<path d="M4.5 23C6.98528 23 9 20.9853 9 18.5C9 16.0147 6.98528 14 4.5 14C2.01472 14 0 16.0147 0 18.5C0 20.9853 2.01472 23 4.5 23Z" fill="#4D6290"/>
<path d="M4.5 37C6.98528 37 9 34.9853 9 32.5C9 30.0147 6.98528 28 4.5 28C2.01472 28 0 30.0147 0 32.5C0 34.9853 2.01472 37 4.5 37Z" fill="#4D6290"/>
<path d="M4.5 51C6.98528 51 9 48.9853 9 46.5C9 44.0147 6.98528 42 4.5 42C2.01472 42 0 44.0147 0 46.5C0 48.9853 2.01472 51 4.5 51Z" fill="#4D6290"/>
<path d="M4.5 65C6.98528 65 9 62.9853 9 60.5C9 58.0147 6.98528 56 4.5 56C2.01472 56 0 58.0147 0 60.5C0 62.9853 2.01472 65 4.5 65Z" fill="#4D6290"/>
<path d="M4.5 79C6.98528 79 9 76.9853 9 74.5C9 72.0147 6.98528 70 4.5 70C2.01472 70 0 72.0147 0 74.5C0 76.9853 2.01472 79 4.5 79Z" fill="#4D6290"/>
<path d="M4.5 93C6.98528 93 9 90.9853 9 88.5C9 86.0147 6.98528 84 4.5 84C2.01472 84 0 86.0147 0 88.5C0 90.9853 2.01472 93 4.5 93Z" fill="#4D6290"/>
<path d="M4.5 107C6.98528 107 9 104.985 9 102.5C9 100.015 6.98528 98 4.5 98C2.01472 98 0 100.015 0 102.5C0 104.985 2.01472 107 4.5 107Z" fill="#4D6290"/>
<path d="M4.5 121C6.98528 121 9 118.985 9 116.5C9 114.015 6.98528 112 4.5 112C2.01472 112 0 114.015 0 116.5C0 118.985 2.01472 121 4.5 121Z" fill="#4D6290"/>
<path d="M4.5 135C6.98528 135 9 132.985 9 130.5C9 128.015 6.98528 126 4.5 126C2.01472 126 0 128.015 0 130.5C0 132.985 2.01472 135 4.5 135Z" fill="#4D6290"/>
<path d="M4.5 149C6.98528 149 9 146.985 9 144.5C9 142.015 6.98528 140 4.5 140C2.01472 140 0 142.015 0 144.5C0 146.985 2.01472 149 4.5 149Z" fill="#4D6290"/>
<path d="M16.5 9C18.9853 9 21 6.98528 21 4.5C21 2.01472 18.9853 0 16.5 0C14.0147 0 12 2.01472 12 4.5C12 6.98528 14.0147 9 16.5 9Z" fill="#4D6290"/>
<path d="M16.5 23C18.9853 23 21 20.9853 21 18.5C21 16.0147 18.9853 14 16.5 14C14.0147 14 12 16.0147 12 18.5C12 20.9853 14.0147 23 16.5 23Z" fill="#4D6290"/>
<path d="M16.5 37C18.9853 37 21 34.9853 21 32.5C21 30.0147 18.9853 28 16.5 28C14.0147 28 12 30.0147 12 32.5C12 34.9853 14.0147 37 16.5 37Z" fill="#4D6290"/>
<path d="M16.5 51C18.9853 51 21 48.9853 21 46.5C21 44.0147 18.9853 42 16.5 42C14.0147 42 12 44.0147 12 46.5C12 48.9853 14.0147 51 16.5 51Z" fill="#4D6290"/>
<path d="M16.5 65C18.9853 65 21 62.9853 21 60.5C21 58.0147 18.9853 56 16.5 56C14.0147 56 12 58.0147 12 60.5C12 62.9853 14.0147 65 16.5 65Z" fill="#4D6290"/>
<path d="M16.5 79C18.9853 79 21 76.9853 21 74.5C21 72.0147 18.9853 70 16.5 70C14.0147 70 12 72.0147 12 74.5C12 76.9853 14.0147 79 16.5 79Z" fill="#4D6290"/>
<path d="M16.5 93C18.9853 93 21 90.9853 21 88.5C21 86.0147 18.9853 84 16.5 84C14.0147 84 12 86.0147 12 88.5C12 90.9853 14.0147 93 16.5 93Z" fill="#4D6290"/>
<path d="M16.5 107C18.9853 107 21 104.985 21 102.5C21 100.015 18.9853 98 16.5 98C14.0147 98 12 100.015 12 102.5C12 104.985 14.0147 107 16.5 107Z" fill="#4D6290"/>
<path d="M16.5 121C18.9853 121 21 118.985 21 116.5C21 114.015 18.9853 112 16.5 112C14.0147 112 12 114.015 12 116.5C12 118.985 14.0147 121 16.5 121Z" fill="#4D6290"/>
<path d="M16.5 135C18.9853 135 21 132.985 21 130.5C21 128.015 18.9853 126 16.5 126C14.0147 126 12 128.015 12 130.5C12 132.985 14.0147 135 16.5 135Z" fill="#4D6290"/>
<path d="M16.5 149C18.9853 149 21 146.985 21 144.5C21 142.015 18.9853 140 16.5 140C14.0147 140 12 142.015 12 144.5C12 146.985 14.0147 149 16.5 149Z" fill="#4D6290"/>
</g>
<defs>
<clipPath id="clip0_207_112">
<rect width="21" height="149" fill="white"/>
</clipPath>
</defs>
</svg>
