<svg width="72" height="74" viewBox="0 0 72 74" fill="none" xmlns="http://www.w3.org/2000/svg">
<path d="M46.0358 70.0225L30.3836 54.2975L35.5396 49.1175L46.0358 59.6625L66.844 38.7575L72 43.9375L46.0358 70.0225ZM66.2916 33.3H58.9258V14.8H51.5601V25.9H14.7315V14.8H7.36573V66.6H29.4629V74H7.36573C5.34015 74 3.60614 73.2754 2.16368 71.8263C0.721228 70.3771 0 68.635 0 66.6V14.8C0 12.765 0.721228 11.0229 2.16368 9.57375C3.60614 8.12458 5.34015 7.4 7.36573 7.4H22.7417C23.4169 5.24167 24.7366 3.46875 26.7008 2.08125C28.665 0.69375 30.8133 0 33.1458 0C35.601 0 37.7954 0.69375 39.7289 2.08125C41.6624 3.46875 42.9668 5.24167 43.6419 7.4H58.9258C60.9514 7.4 62.6854 8.12458 64.1279 9.57375C65.5703 11.0229 66.2916 12.765 66.2916 14.8V33.3ZM33.1458 14.8C34.1893 14.8 35.0639 14.4454 35.7698 13.7363C36.4757 13.0271 36.8286 12.1483 36.8286 11.1C36.8286 10.0517 36.4757 9.17292 35.7698 8.46375C35.0639 7.75458 34.1893 7.4 33.1458 7.4C32.1023 7.4 31.2276 7.75458 30.5217 8.46375C29.8159 9.17292 29.4629 10.0517 29.4629 11.1C29.4629 12.1483 29.8159 13.0271 30.5217 13.7363C31.2276 14.4454 32.1023 14.8 33.1458 14.8Z" fill="white"/>
</svg>
