<svg width="74" height="22" viewBox="0 0 74 22" fill="none" xmlns="http://www.w3.org/2000/svg">
<path fill-rule="evenodd" clip-rule="evenodd" d="M3.77578 20.6161C1.58312 20.6161 0.490479 19.5235 0.490479 17.3308V0.778809H5.902V15.965H13.8901V20.6088H3.77578V20.6161Z" fill="white"/>
<path fill-rule="evenodd" clip-rule="evenodd" d="M30.4717 0.778809V5.42253H21.5756V8.5085H28.8845V12.8126H21.5756V15.9577H30.4717V20.6014H19.4494C17.2567 20.6014 16.1641 19.5087 16.1641 17.3161V4.0715C16.1641 1.87883 17.2567 0.786191 19.4494 0.786191H30.4717V0.778809Z" fill="white"/>
<path fill-rule="evenodd" clip-rule="evenodd" d="M32.2803 10.6717C32.2803 9.23944 32.5608 7.8884 33.1293 6.61858C33.6977 5.35614 34.4656 4.24135 35.4401 3.28898C36.4146 2.33661 37.5589 1.58357 38.8656 1.03725C40.1798 0.490933 41.5751 0.217773 43.0443 0.217773C44.8013 0.217773 46.4108 0.579526 47.8725 1.29565C49.3343 2.01177 50.5672 2.96414 51.5713 4.16014L47.2672 7.22396C46.7947 6.61858 46.1967 6.13132 45.4805 5.76218C44.7644 5.39305 43.9819 5.20848 43.1255 5.20848C42.3872 5.20848 41.7006 5.34875 41.0583 5.63668C40.416 5.91722 39.8549 6.3085 39.3751 6.81053C38.8952 7.31255 38.5187 7.8884 38.2381 8.55285C37.965 9.21729 37.8247 9.92603 37.8247 10.6791C37.8247 11.4321 37.965 12.1482 38.2381 12.8201C38.5113 13.4919 38.8878 14.0751 39.3751 14.5624C39.8549 15.057 40.416 15.4483 41.0583 15.7362C41.7006 16.0315 42.3872 16.1718 43.1255 16.1718C43.9745 16.1718 44.757 15.9872 45.4805 15.6181C46.1967 15.249 46.7947 14.7617 47.2672 14.1563L51.5713 17.1906C50.5672 18.4014 49.3343 19.3611 47.8725 20.0772C46.4108 20.7934 44.8013 21.1551 43.0443 21.1551C41.5677 21.1551 40.1798 20.8746 38.8656 20.3209C37.5515 19.7672 36.4072 19.0141 35.4401 18.0692C34.4656 17.1242 33.6977 16.0168 33.1293 14.7396C32.5608 13.4623 32.2803 12.1113 32.2803 10.6717Z" fill="white"/>
<path fill-rule="evenodd" clip-rule="evenodd" d="M61.154 13.3369H65.2366L63.199 8.20592L61.1613 13.3369H61.154ZM59.9654 3.3038C60.3271 2.51385 60.7553 1.85679 61.2573 1.33262C61.7593 0.815827 62.4016 0.550049 63.199 0.550049C63.9963 0.550049 64.6386 0.801061 65.1406 1.30309C65.6426 1.80511 66.0635 2.44002 66.4031 3.21521L73.9999 20.6162H68.0789L66.9715 17.7296H59.4633L58.3042 20.6162H52.4128L59.9801 3.3038H59.9654Z" fill="white"/>
</svg>
