<svg width="66" height="68" viewBox="0 0 66 68" fill="none" xmlns="http://www.w3.org/2000/svg">
<path d="M9.50008 67.3334C6.50008 67.3334 4.27786 66.7222 2.83341 65.5C1.38897 64.2778 0.666748 62.4445 0.666748 60C0.666748 56.7778 2.02786 54.7222 4.75008 53.8334C7.4723 52.9445 10.6945 52.5 14.4167 52.5H16.1667V47.8334C16.1667 45.9445 16.139 44.4028 16.0834 43.2084C16.0279 42.0139 15.8612 41.0278 15.5834 40.25C15.3056 39.4722 14.9862 38.9306 14.6251 38.625C14.264 38.3195 13.7779 38.1667 13.1667 38.1667C12.6667 38.1667 12.2084 38.25 11.7917 38.4167C11.3751 38.5834 11.0279 38.8056 10.7501 39.0834C10.5279 39.3611 10.389 39.6528 10.3334 39.9584C10.2779 40.2639 10.3056 40.5834 10.4167 40.9167C10.7501 41.5278 11.139 42.125 11.5834 42.7084C12.0279 43.2917 12.2501 43.9722 12.2501 44.75C12.2501 46.1389 11.764 47.3195 10.7917 48.2917C9.81953 49.2639 8.63897 49.75 7.25008 49.75C5.86119 49.75 4.68064 49.2639 3.70841 48.2917C2.73619 47.3195 2.25008 46.1389 2.25008 44.75C2.25008 43.25 2.58341 42.0278 3.25008 41.0834C3.91675 40.1389 4.81953 39.3889 5.95841 38.8334C7.0973 38.2778 8.41675 37.8889 9.91675 37.6667C11.4167 37.4445 13.0279 37.3334 14.7501 37.3334C19.4723 37.3334 22.7501 38.1806 24.5834 39.875C26.4167 41.5695 27.3334 44.5556 27.3334 48.8334V61.0834C27.3334 62.1389 27.4584 62.9167 27.7084 63.4167C27.9584 63.9167 28.389 64.1667 29.0001 64.1667C29.6667 64.1667 30.2084 63.6667 30.6251 62.6667C31.0417 61.6667 31.3056 60.1111 31.4167 58H32.3334C32.1667 61.4445 31.514 63.8611 30.3751 65.25C29.2362 66.6389 27.3334 67.3334 24.6667 67.3334C22.2779 67.3334 20.4029 66.9584 19.0417 66.2084C17.6806 65.4584 16.8056 64.3334 16.4167 62.8334C15.8612 64.4445 15.0417 65.5972 13.9584 66.2917C12.8751 66.9861 11.389 67.3334 9.50008 67.3334ZM40.5834 67.3334C39.4723 67.3334 38.5695 66.875 37.8751 65.9584C37.1806 65.0417 37.0556 64.0556 37.5001 63L46.0001 40.5834C46.389 39.6389 47.0001 38.8611 47.8334 38.25C48.6667 37.6389 49.6112 37.3334 50.6667 37.3334C51.7223 37.3334 52.6667 37.6389 53.5001 38.25C54.3334 38.8611 54.9445 39.6389 55.3334 40.5834L63.8334 63C64.2779 64.0556 64.1529 65.0417 63.4584 65.9584C62.764 66.875 61.8612 67.3334 60.7501 67.3334C60.0834 67.3334 59.4723 67.1389 58.9167 66.75C58.3612 66.3611 57.9445 65.8334 57.6667 65.1667L56.0001 60.3334H45.3334L43.6667 65.1667C43.4445 65.7778 43.0556 66.2917 42.5001 66.7084C41.9445 67.125 41.3056 67.3334 40.5834 67.3334ZM13.5834 64.9167C14.3056 64.9167 14.9167 64.3472 15.4167 63.2084C15.9167 62.0695 16.1667 60.6945 16.1667 59.0834V53.5C14.7223 53.5 13.6667 53.9306 13.0001 54.7917C12.3334 55.6528 12.0001 57.0556 12.0001 59V59.9167C12.0001 61.9167 12.1112 63.25 12.3334 63.9167C12.5556 64.5834 12.9723 64.9167 13.5834 64.9167ZM47.5001 54.5H53.9167L50.6667 45L47.5001 54.5ZM44.4167 30.75C41.7501 30.75 39.6251 29.8195 38.0417 27.9584C36.4584 26.0972 35.6667 23.5834 35.6667 20.4167C35.6667 14.6389 37.5001 9.9028 41.1667 6.20835C44.8334 2.51391 49.5279 0.666687 55.2501 0.666687C57.5834 0.666687 59.4723 0.930576 60.9167 1.45835C62.3612 1.98613 63.0834 2.66669 63.0834 3.50002C63.0834 3.83335 63.0279 4.16669 62.9168 4.50002C62.8056 4.83335 62.6112 5.13891 62.3334 5.41669C62.0556 5.80558 61.7084 6.08335 61.2917 6.25002C60.8751 6.41669 60.4445 6.44446 60.0001 6.33335C59.2223 6.11113 58.3334 5.91669 57.3334 5.75002C56.3334 5.58335 55.4168 5.50002 54.5834 5.50002C50.639 5.50002 47.4723 6.83335 45.0834 9.50002C42.6945 12.1667 41.5001 15.6945 41.5001 20.0834C41.5001 21.3056 41.7223 22.5834 42.1667 23.9167C42.6112 25.25 43.6112 25.9167 45.1667 25.9167C45.7779 25.9167 46.3751 25.7778 46.9584 25.5C47.5417 25.2222 48.0556 24.8334 48.5001 24.3334C49.4445 23.3334 50.3195 21.6667 51.1251 19.3334C51.9306 17 52.6667 14.1667 53.3334 10.8334C53.4445 10.1111 53.7362 9.59724 54.2084 9.29169C54.6806 8.98613 55.3334 8.83335 56.1667 8.83335C57.1667 8.83335 57.9306 9.09724 58.4584 9.62502C58.9862 10.1528 59.139 10.8056 58.9167 11.5834C58.2501 13.9722 57.764 16.0556 57.4584 17.8334C57.1529 19.6111 57.0001 21.2222 57.0001 22.6667C57.0001 23.7778 57.1529 24.5834 57.4584 25.0834C57.764 25.5834 58.2223 25.8334 58.8334 25.8334C59.4445 25.8334 60.0418 25.6111 60.6251 25.1667C61.2084 24.7222 62.0279 23.8889 63.0834 22.6667C63.1945 22.5 63.6112 22.3056 64.3334 22.0834C64.7779 22.0834 65.1112 22.25 65.3334 22.5834C65.5556 22.9167 65.6667 23.3889 65.6667 24C65.6667 25.5556 64.7779 27.0556 63.0001 28.5C61.2223 29.9445 59.3612 30.6667 57.4167 30.6667C55.9723 30.6667 54.7362 30.2778 53.7084 29.5C52.6806 28.7222 51.9723 27.6111 51.5834 26.1667C50.7501 27.6111 49.7223 28.7361 48.5001 29.5417C47.2779 30.3472 45.9167 30.75 44.4167 30.75ZM4.00008 30.6667V12.3334C4.00008 9.11113 5.13897 6.36113 7.41675 4.08335C9.69453 1.80558 12.4445 0.666687 15.6667 0.666687C18.889 0.666687 21.639 1.80558 23.9167 4.08335C26.1945 6.36113 27.3334 9.11113 27.3334 12.3334V30.6667H20.6667V24H10.6667V30.6667H4.00008ZM10.6667 17.3334H20.6667V12.3334C20.6667 10.9445 20.1806 9.76391 19.2084 8.79169C18.2362 7.81946 17.0556 7.33335 15.6667 7.33335C14.2779 7.33335 13.0973 7.81946 12.1251 8.79169C11.1529 9.76391 10.6667 10.9445 10.6667 12.3334V17.3334Z" fill="white"/>
</svg>
