<svg width="30" height="35" viewBox="0 0 30 35" fill="none" xmlns="http://www.w3.org/2000/svg">
<path fill-rule="evenodd" clip-rule="evenodd" d="M5.11597 20.5019L5.13073 5.7217L9.51606 3.13037V20.1992L17.8954 25.1087V30.0256L6.88782 23.706C5.44819 22.8865 5.11597 22.163 5.11597 20.5093V20.5019Z" fill="white"/>
<path fill-rule="evenodd" clip-rule="evenodd" d="M27.8331 7.58204L14.7066 0L11.8643 1.67587L26.9545 10.3727V27.4194L29.723 25.8247V10.7123C29.723 9.05858 29.2727 8.4089 27.8404 7.58204H27.8331Z" fill="white"/>
<path fill-rule="evenodd" clip-rule="evenodd" d="M1.88259 26.8215L15.009 34.4035L17.8514 32.7276L2.76851 24.0308V6.98413L0 8.5788V23.6912C0 25.3449 0.450345 25.9946 1.88259 26.8215Z" fill="white"/>
<path fill-rule="evenodd" clip-rule="evenodd" d="M24.6288 13.4292L24.6141 28.2094L20.2287 30.8007V13.7319L11.8494 8.8224V3.90552L22.857 10.2251C24.2966 11.0446 24.6288 11.7681 24.6288 13.4218V13.4292Z" fill="white"/>
</svg>
