<svg width="43" height="43" viewBox="0 0 43 43" fill="none" xmlns="http://www.w3.org/2000/svg">
<mask id="mask0_121_295" style="mask-type:alpha" maskUnits="userSpaceOnUse" x="0" y="0" width="43" height="43">
<rect width="43" height="43" fill="#E4E4E4"/>
</mask>
<g mask="url(#mask0_121_295)">
<path d="M17.021 29.5624L29.5627 21.4999L17.021 13.4374V29.5624ZM21.5002 39.4166C19.0217 39.4166 16.6925 38.9463 14.5127 38.0056C12.3328 37.065 10.4366 35.7885 8.82412 34.176C7.21162 32.5635 5.93506 30.6673 4.99443 28.4874C4.05381 26.3076 3.5835 23.9784 3.5835 21.4999C3.5835 19.0214 4.05381 16.6923 4.99443 14.5124C5.93506 12.3326 7.21162 10.4364 8.82412 8.82388C10.4366 7.21138 12.3328 5.93481 14.5127 4.99419C16.6925 4.05356 19.0217 3.58325 21.5002 3.58325C23.9786 3.58325 26.3078 4.05356 28.4877 4.99419C30.6675 5.93481 32.5637 7.21138 34.1762 8.82388C35.7887 10.4364 37.0653 12.3326 38.0059 14.5124C38.9465 16.6923 39.4168 19.0214 39.4168 21.4999C39.4168 23.9784 38.9465 26.3076 38.0059 28.4874C37.0653 30.6673 35.7887 32.5635 34.1762 34.176C32.5637 35.7885 30.6675 37.065 28.4877 38.0056C26.3078 38.9463 23.9786 39.4166 21.5002 39.4166ZM21.5002 35.8333C25.5016 35.8333 28.8908 34.4447 31.6679 31.6676C34.445 28.8905 35.8335 25.5013 35.8335 21.4999C35.8335 17.4985 34.445 14.1093 31.6679 11.3322C28.8908 8.55513 25.5016 7.16659 21.5002 7.16659C17.4988 7.16659 14.1095 8.55513 11.3325 11.3322C8.55537 14.1093 7.16683 17.4985 7.16683 21.4999C7.16683 25.5013 8.55537 28.8905 11.3325 31.6676C14.1095 34.4447 17.4988 35.8333 21.5002 35.8333Z" fill="white"/>
</g>
</svg>
