<svg width="70" height="60" viewBox="0 0 70 60" fill="none" xmlns="http://www.w3.org/2000/svg">
<path d="M15.0001 26.5L11.6668 28.3333C10.889 28.7778 10.0557 28.8889 9.16678 28.6667C8.27789 28.4444 7.61122 27.9444 7.16678 27.1667L0.500109 15.5C0.0556641 14.7222 -0.0554471 13.8889 0.166775 13C0.388997 12.1111 0.888997 11.4444 1.66678 11L20.8334 0H26.6668C27.1668 0 27.5696 0.152778 27.8751 0.458333C28.1807 0.763889 28.3334 1.16667 28.3334 1.66667V3.33333C28.3334 5.16667 28.9862 6.73611 30.2918 8.04167C31.5973 9.34722 33.1668 10 35.0001 10C36.8334 10 38.4029 9.34722 39.7084 8.04167C41.014 6.73611 41.6668 5.16667 41.6668 3.33333V1.66667C41.6668 1.16667 41.8196 0.763889 42.1251 0.458333C42.4307 0.152778 42.8334 0 43.3334 0H49.1668L68.3334 11C69.1112 11.4444 69.6112 12.1111 69.8334 13C70.0557 13.8889 69.9446 14.7222 69.5001 15.5L62.8334 27.1667C62.389 27.9444 61.7362 28.4306 60.8751 28.625C60.014 28.8194 59.1668 28.6944 58.3334 28.25L55.0001 26.5833V56.6667C55.0001 57.6111 54.6807 58.4028 54.0418 59.0417C53.4029 59.6806 52.6112 60 51.6668 60H18.3334C17.389 60 16.5973 59.6806 15.9584 59.0417C15.3196 58.4028 15.0001 57.6111 15.0001 56.6667V26.5ZM21.6668 15.3333V53.3333H48.3334V15.3333L58.6668 21L62.1668 15.1667L47.8334 6.83333C47.0001 9.66667 45.4307 12.0139 43.1251 13.875C40.8196 15.7361 38.1112 16.6667 35.0001 16.6667C31.889 16.6667 29.1807 15.7361 26.8751 13.875C24.5696 12.0139 23.0001 9.66667 22.1668 6.83333L7.83344 15.1667L11.3334 21L21.6668 15.3333Z" fill="white"/>
</svg>
