<svg width="25" height="25" viewBox="0 0 25 25" fill="none" xmlns="http://www.w3.org/2000/svg">
<mask id="mask0_121_289" style="mask-type:alpha" maskUnits="userSpaceOnUse" x="0" y="0" width="25" height="25">
<rect x="0.21167" width="24.7882" height="24.7882" fill="white"/>
</mask>
<g mask="url(#mask0_121_289)">
<path d="M8.08708 6.6103L10.979 2.86625C11.1856 2.59082 11.4309 2.38856 11.7149 2.25945C11.999 2.13035 12.2959 2.0658 12.6058 2.0658C12.9156 2.0658 13.2126 2.13035 13.4966 2.25945C13.7806 2.38856 14.0259 2.59082 14.2325 2.86625L17.1245 6.6103L21.514 8.08211C21.9616 8.21982 22.3145 8.47372 22.5727 8.84383C22.8309 9.21393 22.96 9.62276 22.96 10.0703C22.96 10.2769 22.9299 10.4835 22.8696 10.69C22.8094 10.8966 22.7104 11.0946 22.5727 11.2839L19.7324 15.312L19.8357 19.5467C19.8529 20.1492 19.6549 20.657 19.2418 21.0701C18.8287 21.4832 18.3467 21.6898 17.7958 21.6898C17.7614 21.6898 17.572 21.664 17.2277 21.6123L12.6058 20.3213L7.9838 21.6123C7.89773 21.6468 7.80305 21.6683 7.69977 21.6769C7.59648 21.6855 7.50181 21.6898 7.41574 21.6898C6.86489 21.6898 6.38289 21.4832 5.96976 21.0701C5.55662 20.657 5.35866 20.1492 5.37587 19.5467L5.47916 15.2862L2.66466 11.2839C2.52695 11.0946 2.42797 10.8966 2.36772 10.69C2.30747 10.4835 2.27734 10.2769 2.27734 10.0703C2.27734 9.63998 2.40215 9.23975 2.65175 8.86965C2.90135 8.49955 3.24994 8.23703 3.6975 8.08211L8.08708 6.6103Z" fill="white"/>
</g>
</svg>
