<svg width="60" height="60" viewBox="0 0 60 60" fill="none" xmlns="http://www.w3.org/2000/svg">
<path d="M51 57L30 36L22.95 43.05C23.35 43.8 23.625 44.6 23.775 45.45C23.925 46.3 24 47.15 24 48C24 51.3 22.825 54.125 20.475 56.475C18.125 58.825 15.3 60 12 60C8.7 60 5.875 58.825 3.525 56.475C1.175 54.125 0 51.3 0 48C0 44.7 1.175 41.875 3.525 39.525C5.875 37.175 8.7 36 12 36C12.85 36 13.7 36.075 14.55 36.225C15.4 36.375 16.2 36.65 16.95 37.05L24 30L16.95 22.95C16.2 23.35 15.4 23.625 14.55 23.775C13.7 23.925 12.85 24 12 24C8.7 24 5.875 22.825 3.525 20.475C1.175 18.125 0 15.3 0 12C0 8.7 1.175 5.875 3.525 3.525C5.875 1.175 8.7 0 12 0C15.3 0 18.125 1.175 20.475 3.525C22.825 5.875 24 8.7 24 12C24 12.85 23.925 13.7 23.775 14.55C23.625 15.4 23.35 16.2 22.95 16.95L60 54V57H51ZM39 27L33 21L51 3H60V6L39 27ZM12 18C13.65 18 15.0625 17.4125 16.2375 16.2375C17.4125 15.0625 18 13.65 18 12C18 10.35 17.4125 8.9375 16.2375 7.7625C15.0625 6.5875 13.65 6 12 6C10.35 6 8.9375 6.5875 7.7625 7.7625C6.5875 8.9375 6 10.35 6 12C6 13.65 6.5875 15.0625 7.7625 16.2375C8.9375 17.4125 10.35 18 12 18ZM30 31.5C30.4 31.5 30.75 31.35 31.05 31.05C31.35 30.75 31.5 30.4 31.5 30C31.5 29.6 31.35 29.25 31.05 28.95C30.75 28.65 30.4 28.5 30 28.5C29.6 28.5 29.25 28.65 28.95 28.95C28.65 29.25 28.5 29.6 28.5 30C28.5 30.4 28.65 30.75 28.95 31.05C29.25 31.35 29.6 31.5 30 31.5ZM12 54C13.65 54 15.0625 53.4125 16.2375 52.2375C17.4125 51.0625 18 49.65 18 48C18 46.35 17.4125 44.9375 16.2375 43.7625C15.0625 42.5875 13.65 42 12 42C10.35 42 8.9375 42.5875 7.7625 43.7625C6.5875 44.9375 6 46.35 6 48C6 49.65 6.5875 51.0625 7.7625 52.2375C8.9375 53.4125 10.35 54 12 54Z" fill="white"/>
</svg>
